# xmcd
#
# Track frame offsets: 
#        150
#        18968
#        44971
#        68184
#        79787
#        131612
#        150475
#        160480
#        176740
#        187443
#        217976
#        258836
#
# Disc length: 3838 seconds
#
# Revision: 0
# Processed by: cddbd v1.5.2PL0 Copyright (c) Steve Scherf et al.
# Submitted via: ExactAudioCopyFreeDBPlugin 1.0
#
DISCID=ac0efc0c
DTITLE=Big Brother and The Holding Company - The Lost Tapes [CD1]
DYEAR=1966
DGENRE=Blues Rock
TTITLE0=Bye, Bye Baby
TTITLE1=Great White Guru
TTITLE2=Women Is Losers
TTITLE3=Oh My Soul
TTITLE4=Amazing Grace
TTITLE5=Caterpillar
TTITLE6=It's A Deal
TTITLE7=Hi Heel Sneakers
TTITLE8=Faster Pussycat Kill Kill
TTITLE9=Turtle Blues
TTITLE10=All Is Loneliness
TTITLE11=Light Is Faster Than Sound
EXTD=
EXTT0=
EXTT1=
EXTT2=
EXTT3=
EXTT4=
EXTT5=
EXTT6=
EXTT7=
EXTT8=
EXTT9=
EXTT10=
EXTT11=
PLAYORDER=
